# xmcd
# 
# Track frame offsets:
#     150
#     24412
#     42407
#     62202
#     87247
#     100992
#     119667
#     137650
#     158555
#     180345
# 
# Disc length: 2765
# 
# Revision: 7
# Processed by: cddbd v1.5.2PL0 Copyright (c) Steve Scherf et al.
# Submitted via: BonkEnc v1.0.15
# 
DISCID=7f0acb0a
DTITLE=CHAGE and ASKA - Standing Ovation (PCCA-00103)
DYEAR=1985
DGENRE=JPop
TTITLE0=ひとり咲き
TTITLE1=万里の河
TTITLE2=男と女
TTITLE3=終章（エピローグ）
TTITLE4=ボヘミアン
TTITLE5=マリア Back To The City
TTITLE6=誘惑のベルが鳴る
TTITLE7=涙・BOY
TTITLE8=MOON LIGHT BLUES
TTITLE9=TWILIGHT ZONE
EXTD=YEAR: 1985
EXTT0=
EXTT1=
EXTT2=
EXTT3=
EXTT4=
EXTT5=
EXTT6=
EXTT7=
EXTT8=
EXTT9=
PLAYORDER=
